<?xml version="1.0" encoding="utf-8"?>
<!-- Generator: Adobe Illustrator 15.0.2, SVG Export Plug-In . SVG Version: 6.00 Build 0)  -->
<!DOCTYPE svg PUBLIC "-//W3C//DTD SVG 1.1//EN" "http://www.w3.org/Graphics/SVG/1.1/DTD/svg11.dtd">
<svg version="1.1" id="ubuntu__x5F__orange" xmlns="http://www.w3.org/2000/svg" xmlns:xlink="http://www.w3.org/1999/xlink"
	 x="0px" y="0px" width="425.197px" height="209.764px" viewBox="0 0 425.197 209.764" enable-background="new 0 0 425.197 209.764"
	 xml:space="preserve">
<g>
</g>
<g>
</g>
<g>
</g>
<g>
</g>
<g>
	<circle fill="#DD4814" cx="337.365" cy="90.017" r="16.966"/>
	<path fill="#FFFFFF" d="M326.783,87.978c-1.127,0-2.036,0.912-2.036,2.039c0,1.123,0.909,2.037,2.036,2.037
		c1.128,0,2.039-0.914,2.039-2.037C328.822,88.89,327.911,87.978,326.783,87.978z M341.338,97.244
		c-0.976,0.559-1.308,1.807-0.747,2.779c0.563,0.977,1.809,1.309,2.784,0.748c0.975-0.562,1.31-1.809,0.747-2.783
		C343.559,97.013,342.312,96.679,341.338,97.244z M331.213,90.017c0-2.016,0.998-3.797,2.529-4.873l-1.488-2.498
		c-1.784,1.191-3.112,3.014-3.664,5.148c0.646,0.525,1.055,1.324,1.055,2.223c0,0.893-0.408,1.691-1.055,2.219
		c0.552,2.133,1.88,3.955,3.664,5.146l1.488-2.496C332.211,93.81,331.213,92.031,331.213,90.017z M337.165,84.06
		c3.112,0,5.663,2.385,5.931,5.43l2.905-0.047c-0.144-2.244-1.124-4.26-2.631-5.742c-0.776,0.291-1.672,0.25-2.445-0.199
		c-0.773-0.447-1.26-1.199-1.394-2.02c-0.754-0.207-1.547-0.322-2.366-0.322c-1.408,0-2.741,0.332-3.922,0.918l1.415,2.537
		C335.42,84.259,336.271,84.06,337.165,84.06z M337.165,95.968c-0.895,0-1.745-0.197-2.507-0.553l-1.415,2.537
		c1.181,0.588,2.514,0.916,3.922,0.916c0.819,0,1.612-0.111,2.366-0.32c0.134-0.82,0.62-1.572,1.394-2.021
		c0.775-0.447,1.669-0.49,2.445-0.195c1.507-1.484,2.487-3.5,2.631-5.746l-2.905-0.041
		C342.828,93.585,340.277,95.968,337.165,95.968z M341.338,82.789c0.974,0.561,2.221,0.229,2.782-0.748
		c0.563-0.971,0.229-2.219-0.745-2.781c-0.976-0.562-2.221-0.229-2.784,0.746C340.03,80.98,340.362,82.226,341.338,82.789z"/>
	<g>
		<path fill="#DD4814" d="M104.798,134.53c-1.725,0.432-3.999,0.889-6.826,1.374c-2.83,0.483-6.102,0.726-9.817,0.726
			c-3.23,0-5.952-0.472-8.159-1.413c-2.209-0.941-3.986-2.274-5.332-3.998c-1.348-1.724-2.316-3.757-2.908-6.101
			c-0.594-2.341-0.889-4.939-0.889-7.795V93.734h7.513v21.973c0,5.117,0.808,8.779,2.424,10.986
			c1.616,2.211,4.334,3.314,8.159,3.314c0.809,0,1.642-0.029,2.505-0.083c0.86-0.053,1.67-0.122,2.425-0.202
			c0.752-0.081,1.439-0.161,2.059-0.242c0.619-0.08,1.064-0.173,1.334-0.283V93.734h7.514V134.53z"/>
		<path fill="#DD4814" d="M123.134,95.591c0.915-0.592,2.304-1.211,4.161-1.857s3.999-0.969,6.422-0.969
			c3.016,0,5.696,0.539,8.039,1.615c2.342,1.078,4.322,2.584,5.938,4.523c1.614,1.939,2.839,4.256,3.675,6.947
			c0.834,2.695,1.253,5.656,1.253,8.888c0,3.392-0.5,6.45-1.494,9.168c-0.999,2.72-2.412,5.021-4.242,6.907
			c-1.832,1.885-4.039,3.34-6.625,4.362c-2.584,1.023-5.493,1.535-8.725,1.535c-3.502,0-6.598-0.244-9.289-0.728
			c-2.693-0.485-4.902-0.97-6.625-1.454V74.347l7.513-1.293V95.591z M123.134,129.197c0.755,0.216,1.818,0.42,3.192,0.605
			c1.373,0.191,3.082,0.284,5.129,0.284c4.039,0,7.271-1.334,9.693-3.999c2.425-2.666,3.637-6.45,3.637-11.349
			c0-2.153-0.216-4.173-0.646-6.062c-0.432-1.883-1.132-3.514-2.102-4.885c-0.969-1.375-2.222-2.451-3.756-3.232
			s-3.38-1.172-5.533-1.172c-2.049,0-3.932,0.352-5.654,1.051c-1.727,0.701-3.045,1.428-3.96,2.182V129.197z"/>
		<path fill="#DD4814" d="M194.546,134.53c-1.725,0.432-4,0.889-6.826,1.374c-2.827,0.483-6.1,0.726-9.816,0.726
			c-3.23,0-5.95-0.472-8.158-1.413c-2.209-0.941-3.986-2.274-5.331-3.998c-1.348-1.724-2.315-3.757-2.909-6.101
			c-0.593-2.341-0.889-4.939-0.889-7.795V93.734h7.512v21.973c0,5.117,0.809,8.779,2.424,10.986
			c1.617,2.211,4.336,3.314,8.159,3.314c0.81,0,1.644-0.029,2.505-0.083c0.859-0.053,1.668-0.122,2.424-0.202
			c0.754-0.081,1.44-0.161,2.061-0.242c0.618-0.08,1.062-0.173,1.331-0.283V93.734h7.514V134.53z"/>
		<path fill="#DD4814" d="M205.37,94.947c1.723-0.432,4.01-0.889,6.867-1.375c2.852-0.484,6.138-0.727,9.854-0.727
			c3.34,0,6.113,0.473,8.32,1.414c2.208,0.943,3.972,2.262,5.293,3.959c1.317,1.695,2.246,3.729,2.786,6.098
			c0.538,2.373,0.808,4.984,0.808,7.837v23.588h-7.513v-21.973c0-2.584-0.176-4.791-0.525-6.624
			c-0.351-1.833-0.929-3.313-1.737-4.442c-0.808-1.133-1.885-1.953-3.231-2.465c-1.346-0.514-3.018-0.768-5.007-0.768
			c-0.811,0-1.645,0.027-2.504,0.08c-0.862,0.055-1.686,0.121-2.464,0.203c-0.784,0.08-1.481,0.176-2.102,0.281
			c-0.62,0.109-1.063,0.189-1.333,0.242v35.464h-7.512V94.947z"/>
		<path fill="#DD4814" d="M256.665,93.734h15.914v6.301h-15.914v19.388c0,2.1,0.161,3.84,0.485,5.212s0.809,2.451,1.454,3.229
			c0.646,0.781,1.452,1.333,2.423,1.656c0.97,0.324,2.1,0.487,3.392,0.487c2.314,0,4.147-0.258,5.494-0.771
			c1.345-0.511,2.262-0.874,2.748-1.09l1.614,6.141c-0.755,0.378-2.088,0.863-3.999,1.453c-1.912,0.593-4.078,0.889-6.502,0.889
			c-2.856,0-5.212-0.362-7.07-1.089c-1.856-0.729-3.351-1.817-4.482-3.273c-1.131-1.453-1.925-3.243-2.382-5.372
			c-0.46-2.126-0.688-4.59-0.688-7.391V82.021l7.513-1.293V93.734z"/>
		<path fill="#DD4814" d="M313.455,134.53c-1.726,0.432-3.999,0.889-6.826,1.374c-2.827,0.483-6.101,0.726-9.814,0.726
			c-3.232,0-5.952-0.472-8.161-1.413s-3.986-2.274-5.33-3.998c-1.348-1.724-2.316-3.757-2.91-6.101
			c-0.592-2.341-0.889-4.939-0.889-7.795V93.734h7.515v21.973c0,5.117,0.808,8.779,2.424,10.986
			c1.614,2.211,4.334,3.314,8.159,3.314c0.807,0,1.641-0.029,2.504-0.083c0.859-0.053,1.667-0.122,2.422-0.202
			c0.754-0.081,1.441-0.161,2.061-0.242c0.617-0.08,1.063-0.173,1.334-0.283V93.734h7.513V134.53z"/>
	</g>
</g>
</svg>
